<svg width="679" height="150" viewBox="0 0 679 150" fill="none" xmlns="http://www.w3.org/2000/svg">
<path d="M110 0H30C13.4315 0 0 13.4315 0 30V110C0 126.569 13.4315 140 30 140H110C126.569 140 140 126.569 140 110V30C140 13.4315 126.569 0 110 0Z" fill="#1F1F1F"/>
<path d="M66 108C85.33 108 101 92.33 101 73C101 53.67 85.33 38 66 38C46.67 38 31 53.67 31 73C31 92.33 46.67 108 66 108Z" fill="white"/>
<path d="M66.9347 54.3883C73.4609 55.3725 76.0709 60.1956 75.3999 64.6453C74.5499 70.2816 69.2856 71.7935 68.7219 75.5312C68.5161 76.8958 69.723 77.7452 72.0961 78.1031C74.1727 78.4163 75.7364 78.106 75.7364 78.106L74.287 87.7173C72.3762 87.9146 69.6292 87.6217 67.434 87.2906C58.8906 86.0023 57.0688 82.3902 57.7667 77.7626C58.5898 72.3043 63.5118 72.2577 64.2455 67.3927C64.5407 65.4349 63.9583 62.8592 60.9325 62.4029C57.6694 61.9108 55.3381 64.8966 54.5776 69.9396L52.3587 84.6532L39.603 82.7296L46.3132 38.2327L59.069 40.1563L56.877 54.692C56.5817 56.6498 51.3612 59.0785 50.3144 66.02L51.7383 66.2347C52.4541 61.4884 58.0947 53.0552 66.9347 54.3883Z" fill="#1F1F1F"/>
<path d="M65.4862 76.4398L101.081 81.8289L99.5357 92.0326L63.9413 86.6435L65.4862 76.4398Z" fill="#1F1F1F"/>
<path d="M217.463 68.4125C238.2 68.4125 239.863 87.75 239.863 100L219.738 99.9125C219.738 87.3125 216.938 73.4 201.625 73.4H196.813V100H177.563V35.25H196.813V60.1H200.138C215.538 60.1 217.463 47.325 217.463 35.25H237.588C237.588 52.6625 233.475 65.7875 217.463 65.7875H214.05V68.4125H217.463ZM281.532 53.1875C295.182 53.1875 298.594 63.8625 298.594 75.675V100H279.782V80.225C279.782 71.9125 278.119 68.325 273.482 68.325C269.194 68.325 266.832 71.5625 266.832 79.6125V100H248.019V54.5H264.382C266.657 54.5 266.832 55.1125 266.832 55.8125C266.832 58.7 259.832 63.3375 259.832 73.575H261.932C261.932 66.575 268.232 53.1875 281.532 53.1875ZM331.55 100.875C315.1 100.875 305.388 90.2 305.388 76.9875C305.388 63.775 315.1 53.1875 331.55 53.1875C348.35 53.1875 357.888 63.775 357.888 76.9875C357.888 90.2 348.35 100.875 331.55 100.875ZM324.463 76.9875C324.463 82.9375 327.088 86.7 331.638 86.7C336.275 86.7 338.813 82.9375 338.813 76.9875C338.813 71.2125 336.275 67.3625 331.638 67.3625C327.088 67.3625 324.463 71.2125 324.463 76.9875ZM413.43 100.7C407.655 100.7 397.767 88.8875 398.642 73.75H396.63C393.13 85.7375 397.155 91.25 397.155 99.3875C397.155 100.438 396.98 100.7 394.617 100.7H371.605L359.355 54.5H377.03L385.255 84.775H387.53C383.33 70.95 386.13 54.4125 403.63 54.5L412.292 84.775H414.567C409.755 72.35 410.98 53.625 430.23 53.625C435.305 53.625 438.892 54.325 438.892 54.325L433.992 71.3875C433.992 71.3875 432.067 70.775 430.492 70.775C426.555 70.775 424.717 73.925 424.805 78.65C424.892 85.7375 429.617 95.1 429.617 98.3375C429.617 99.5625 429.267 100.7 427.08 100.7H413.43ZM465.55 84.95H501.075V100H446.3V35.25H465.55V84.95ZM524.093 100.525C506.855 100.525 505.893 86.35 505.893 78.0375V54.5H524.705V73.4875C524.705 81.8 526.368 85.3875 531.005 85.3875C535.293 85.3875 537.655 82.15 537.655 74.1V54.5H556.468V100H540.105C537.83 100 537.655 99.3875 537.655 98.6875C537.655 95.8 544.655 90.8125 544.655 80.575H542.555C542.555 87.575 536.518 100.525 524.093 100.525ZM598.678 77.775C598.678 71.3 596.578 68.325 592.728 68.325C588.266 68.325 585.728 71.5625 585.728 79.6125V100H566.916V54.5H583.366C585.553 54.5 585.728 55.1125 585.728 55.8125C585.728 58.7 578.728 63.3375 578.728 73.575H580.828C580.828 66.575 587.128 53.1875 600.428 53.1875C609.966 53.1875 613.728 58.7875 613.728 61.2375C613.728 64.125 610.053 65.0875 610.053 73.575H612.153C612.153 65.7 618.016 53.1875 631.316 53.1875C644.966 53.1875 648.378 63.8625 648.378 75.675V100H629.566V77.775C629.566 71.3 627.028 68.325 623.266 68.325C619.941 68.325 617.491 70.6875 617.491 78.7375V100H598.678V77.775ZM677.348 54.5V100H658.536V54.5H677.348ZM657.486 41.2875C657.486 36.5625 662.036 32.8 667.898 32.8C673.673 32.8 678.311 36.5625 678.311 41.2875C678.311 46.0125 673.673 49.775 667.898 49.775C662.036 49.775 657.486 46.0125 657.486 41.2875Z" fill="#1F1F1F"/>
<path d="M110 0H30C13.4315 0 0 13.4315 0 30V110C0 126.569 13.4315 140 30 140H110C126.569 140 140 126.569 140 110V30C140 13.4315 126.569 0 110 0Z" fill="#1F1F1F"/>
<path d="M66 108C85.33 108 101 92.33 101 73C101 53.67 85.33 38 66 38C46.67 38 31 53.67 31 73C31 92.33 46.67 108 66 108Z" fill="white"/>
<path d="M66.9347 54.3883C73.4609 55.3725 76.0709 60.1956 75.3999 64.6453C74.5499 70.2816 69.2856 71.7935 68.7219 75.5312C68.5161 76.8958 69.723 77.7452 72.0961 78.1031C74.1727 78.4163 75.7364 78.106 75.7364 78.106L74.287 87.7173C72.3762 87.9146 69.6292 87.6217 67.434 87.2906C58.8906 86.0023 57.0688 82.3902 57.7667 77.7626C58.5898 72.3043 63.5118 72.2577 64.2455 67.3927C64.5407 65.4349 63.9583 62.8592 60.9325 62.4029C57.6694 61.9108 55.3381 64.8966 54.5776 69.9396L52.3587 84.6532L39.603 82.7296L46.3132 38.2327L59.069 40.1563L56.877 54.692C56.5817 56.6498 51.3612 59.0785 50.3144 66.02L51.7383 66.2347C52.4541 61.4884 58.0947 53.0552 66.9347 54.3883Z" fill="#1F1F1F"/>
<path d="M65.4862 76.4398L101.081 81.8289L99.5357 92.0326L63.9413 86.6435L65.4862 76.4398Z" fill="#1F1F1F"/>
<path d="M217.463 68.4125C238.2 68.4125 239.863 87.75 239.863 100L219.738 99.9125C219.738 87.3125 216.938 73.4 201.625 73.4H196.813V100H177.563V35.25H196.813V60.1H200.138C215.538 60.1 217.463 47.325 217.463 35.25H237.588C237.588 52.6625 233.475 65.7875 217.463 65.7875H214.05V68.4125H217.463ZM281.532 53.1875C295.182 53.1875 298.594 63.8625 298.594 75.675V100H279.782V80.225C279.782 71.9125 278.119 68.325 273.482 68.325C269.194 68.325 266.832 71.5625 266.832 79.6125V100H248.019V54.5H264.382C266.657 54.5 266.832 55.1125 266.832 55.8125C266.832 58.7 259.832 63.3375 259.832 73.575H261.932C261.932 66.575 268.232 53.1875 281.532 53.1875ZM331.55 100.875C315.1 100.875 305.388 90.2 305.388 76.9875C305.388 63.775 315.1 53.1875 331.55 53.1875C348.35 53.1875 357.888 63.775 357.888 76.9875C357.888 90.2 348.35 100.875 331.55 100.875ZM324.463 76.9875C324.463 82.9375 327.088 86.7 331.638 86.7C336.275 86.7 338.813 82.9375 338.813 76.9875C338.813 71.2125 336.275 67.3625 331.638 67.3625C327.088 67.3625 324.463 71.2125 324.463 76.9875ZM413.43 100.7C407.655 100.7 397.767 88.8875 398.642 73.75H396.63C393.13 85.7375 397.155 91.25 397.155 99.3875C397.155 100.438 396.98 100.7 394.617 100.7H371.605L359.355 54.5H377.03L385.255 84.775H387.53C383.33 70.95 386.13 54.4125 403.63 54.5L412.292 84.775H414.567C409.755 72.35 410.98 53.625 430.23 53.625C435.305 53.625 438.892 54.325 438.892 54.325L433.992 71.3875C433.992 71.3875 432.067 70.775 430.492 70.775C426.555 70.775 424.717 73.925 424.805 78.65C424.892 85.7375 429.617 95.1 429.617 98.3375C429.617 99.5625 429.267 100.7 427.08 100.7H413.43ZM465.55 84.95H501.075V100H446.3V35.25H465.55V84.95ZM524.093 100.525C506.855 100.525 505.893 86.35 505.893 78.0375V54.5H524.705V73.4875C524.705 81.8 526.368 85.3875 531.005 85.3875C535.293 85.3875 537.655 82.15 537.655 74.1V54.5H556.468V100H540.105C537.83 100 537.655 99.3875 537.655 98.6875C537.655 95.8 544.655 90.8125 544.655 80.575H542.555C542.555 87.575 536.518 100.525 524.093 100.525ZM598.678 77.775C598.678 71.3 596.578 68.325 592.728 68.325C588.266 68.325 585.728 71.5625 585.728 79.6125V100H566.916V54.5H583.366C585.553 54.5 585.728 55.1125 585.728 55.8125C585.728 58.7 578.728 63.3375 578.728 73.575H580.828C580.828 66.575 587.128 53.1875 600.428 53.1875C609.966 53.1875 613.728 58.7875 613.728 61.2375C613.728 64.125 610.053 65.0875 610.053 73.575H612.153C612.153 65.7 618.016 53.1875 631.316 53.1875C644.966 53.1875 648.378 63.8625 648.378 75.675V100H629.566V77.775C629.566 71.3 627.028 68.325 623.266 68.325C619.941 68.325 617.491 70.6875 617.491 78.7375V100H598.678V77.775ZM677.348 54.5V100H658.536V54.5H677.348ZM657.486 41.2875C657.486 36.5625 662.036 32.8 667.898 32.8C673.673 32.8 678.311 36.5625 678.311 41.2875C678.311 46.0125 673.673 49.775 667.898 49.775C662.036 49.775 657.486 46.0125 657.486 41.2875Z" fill="#1F1F1F"/>
<path d="M355.312 22.4062C354.948 23.2396 354.622 23.9688 354.336 24.5938C354.049 25.2188 353.802 25.7526 353.594 26.1953C353.359 26.6901 353.164 27.1328 353.008 27.5234C352.878 27.8099 352.708 28.2005 352.5 28.6953C352.292 29.138 352.031 29.724 351.719 30.4531C351.432 31.1562 351.055 32.0677 350.586 33.1875C350.352 32.224 350.065 31.3776 349.727 30.6484C349.388 29.9193 349.023 29.2812 348.633 28.7344C348.242 28.1875 347.826 27.7448 347.383 27.4062C346.966 27.0417 346.549 26.7422 346.133 26.5078C345.169 25.987 344.154 25.7005 343.086 25.6484C341.68 25.7266 340.573 25.9609 339.766 26.3516C338.984 26.7161 338.411 27.1458 338.047 27.6406C337.682 28.1094 337.487 28.6042 337.461 29.125C337.435 29.6198 337.5 30.0365 337.656 30.375C337.786 30.6875 338.242 31.0521 339.023 31.4688C339.831 31.8854 340.794 32.3672 341.914 32.9141C343.06 33.4349 344.284 34.0339 345.586 34.7109C346.888 35.362 348.086 36.0911 349.18 36.8984C350.299 37.6797 351.237 38.5391 351.992 39.4766C352.773 40.388 353.203 41.3646 353.281 42.4062C353.359 43.7344 353.346 44.9323 353.242 46C353.138 47.0677 352.773 47.9792 352.148 48.7344C351.523 49.4896 350.547 50.0885 349.219 50.5312C347.917 50.974 346.107 51.2474 343.789 51.3516C341.393 51.4557 339.427 51.3255 337.891 50.9609C336.354 50.5964 335.104 50.1016 334.141 49.4766C333.203 48.8516 332.5 48.1615 332.031 47.4062C331.589 46.651 331.263 45.9349 331.055 45.2578C330.846 44.5547 330.703 43.9557 330.625 43.4609C330.547 42.9401 330.417 42.6276 330.234 42.5234C330.026 42.3932 329.818 42.276 329.609 42.1719C329.427 42.0677 329.232 41.9766 329.023 41.8984C328.815 41.7943 328.607 41.7031 328.398 41.625L339.766 39.7891C339.115 40.3099 338.607 40.7917 338.242 41.2344C337.904 41.6771 337.643 42.0677 337.461 42.4062C337.253 42.7969 337.109 43.1615 337.031 43.5C336.979 43.8646 337.096 44.3203 337.383 44.8672C337.669 45.4141 338.06 45.9479 338.555 46.4688C339.076 46.9635 339.674 47.3802 340.352 47.7188C341.029 48.0573 341.732 48.2005 342.461 48.1484C343.372 48.0703 344.115 47.849 344.688 47.4844C345.26 47.0938 345.69 46.612 345.977 46.0391C346.289 45.4661 346.471 44.8411 346.523 44.1641C346.576 43.487 346.51 42.8229 346.328 42.1719C346.172 41.4948 345.911 40.8698 345.547 40.2969C345.182 39.6979 344.753 39.2031 344.258 38.8125C343.815 38.5 343.125 38.2005 342.188 37.9141C341.276 37.6276 340.247 37.3151 339.102 36.9766C337.982 36.638 336.823 36.2474 335.625 35.8047C334.453 35.362 333.385 34.8151 332.422 34.1641C331.484 33.513 330.729 32.7448 330.156 31.8594C329.609 30.974 329.401 29.9062 329.531 28.6562C329.635 27.5885 329.974 26.7031 330.547 26C331.146 25.2708 331.888 24.6979 332.773 24.2812C333.685 23.8385 334.688 23.513 335.781 23.3047C336.901 23.0964 338.034 22.9792 339.18 22.9531C340.352 22.901 341.497 22.9141 342.617 22.9922C343.763 23.0703 344.792 23.1615 345.703 23.2656C346.615 23.3698 347.383 23.474 348.008 23.5781C348.659 23.6562 349.062 23.7083 349.219 23.7344C349.896 23.7865 350.573 23.7734 351.25 23.6953C351.849 23.6432 352.5 23.526 353.203 23.3438C353.932 23.1354 354.635 22.8229 355.312 22.4062ZM377.148 37.1328C376.836 37.0807 376.445 37.0417 375.977 37.0156C375.534 36.9896 375.104 36.9766 374.688 36.9766C374.219 36.9766 373.724 36.9896 373.203 37.0156C372.656 37.0417 372.109 37.0677 371.562 37.0938C371.094 37.1198 370.56 37.1589 369.961 37.2109C369.388 37.237 368.828 37.276 368.281 37.3281C368.49 37.224 368.672 37.0807 368.828 36.8984C369.01 36.7161 369.167 36.5339 369.297 36.3516C369.427 36.1432 369.544 35.9219 369.648 35.6875C369.779 35.2969 369.766 34.8281 369.609 34.2812C369.453 33.7083 369.167 33.1875 368.75 32.7188C368.359 32.25 367.852 31.8854 367.227 31.625C366.628 31.3385 365.964 31.2734 365.234 31.4297C364.453 31.612 363.75 31.8854 363.125 32.25C362.526 32.6146 362.018 33.1224 361.602 33.7734C361.211 34.3984 360.924 35.1797 360.742 36.1172C360.586 37.0286 360.547 38.1224 360.625 39.3984C360.729 40.987 360.99 42.25 361.406 43.1875C361.823 44.125 362.331 44.8281 362.93 45.2969C363.529 45.7656 364.18 46.0521 364.883 46.1562C365.612 46.2344 366.328 46.2344 367.031 46.1562C367.526 46.0521 367.982 45.8307 368.398 45.4922C368.737 45.2057 369.049 44.7891 369.336 44.2422C369.622 43.6953 369.753 42.9401 369.727 41.9766L374.492 41.7812C373.945 43.3177 373.281 44.5417 372.5 45.4531C371.719 46.3385 370.964 47.0286 370.234 47.5234C369.375 48.0964 368.516 48.487 367.656 48.6953C366.589 48.8776 365.638 48.9557 364.805 48.9297C363.971 48.8776 363.216 48.7474 362.539 48.5391C361.862 48.3307 361.237 48.0703 360.664 47.7578C360.091 47.4453 359.544 47.1068 359.023 46.7422C358.685 46.5078 358.307 46.1172 357.891 45.5703C357.474 45.0234 357.083 44.3724 356.719 43.6172C356.354 42.8359 356.055 41.9766 355.82 41.0391C355.586 40.1016 355.495 39.138 355.547 38.1484C355.599 37.1328 355.833 36.1172 356.25 35.1016C356.667 34.0859 357.331 33.1094 358.242 32.1719C359.622 30.7656 361.094 29.8542 362.656 29.4375C364.245 28.9948 365.742 28.8776 367.148 29.0859C368.555 29.2682 369.805 29.6719 370.898 30.2969C371.992 30.9219 372.76 31.599 373.203 32.3281C373.646 33.0573 373.971 33.6172 374.18 34.0078C374.414 34.3724 374.583 34.6589 374.688 34.8672C374.818 35.0495 374.922 35.1927 375 35.2969C375.104 35.375 375.247 35.4922 375.43 35.6484C375.56 35.7786 375.716 35.9219 375.898 36.0781C376.055 36.2083 376.237 36.3646 376.445 36.5469C376.654 36.7292 376.888 36.9245 377.148 37.1328ZM376.367 21.3906C376.966 21.4948 377.513 21.5729 378.008 21.625C378.503 21.651 378.919 21.6771 379.258 21.7031C379.648 21.7292 379.987 21.7422 380.273 21.7422C380.664 21.7161 381.12 21.6771 381.641 21.625C382.083 21.5729 382.617 21.5078 383.242 21.4297C383.893 21.3516 384.635 21.2474 385.469 21.1172C385.078 21.3255 384.753 21.5339 384.492 21.7422C384.232 21.9245 384.023 22.1198 383.867 22.3281C383.685 22.5625 383.542 22.7839 383.438 22.9922C383.307 23.3307 383.164 24.0339 383.008 25.1016C382.852 26.013 382.656 27.3672 382.422 29.1641C382.214 30.9609 381.94 33.3958 381.602 36.4688C382.539 35.5312 383.424 34.8281 384.258 34.3594C385.117 33.8646 385.872 33.513 386.523 33.3047C387.279 33.0703 387.982 32.9531 388.633 32.9531C389.44 33.0312 390.26 33.2917 391.094 33.7344C391.953 34.151 392.747 34.6458 393.477 35.2188C394.232 35.7917 394.883 36.4036 395.43 37.0547C396.003 37.7057 396.406 38.2786 396.641 38.7734C396.797 39.112 396.875 39.5547 396.875 40.1016C396.875 40.6224 396.823 41.1953 396.719 41.8203C396.615 42.4453 396.471 43.0833 396.289 43.7344C396.107 44.3854 395.924 44.9974 395.742 45.5703C395.586 46.1432 395.443 46.651 395.312 47.0938C395.182 47.5104 395.104 47.8099 395.078 47.9922C395.026 48.3828 395.052 48.7604 395.156 49.125C395.234 49.4375 395.391 49.776 395.625 50.1406C395.859 50.4792 396.211 50.7656 396.68 51C396.315 50.9479 395.924 50.9089 395.508 50.8828C395.117 50.8307 394.74 50.7917 394.375 50.7656C393.958 50.7396 393.542 50.7266 393.125 50.7266H391.719C391.276 50.7266 390.768 50.7396 390.195 50.7656C389.622 50.7656 388.997 50.7786 388.32 50.8047C388.685 50.6745 388.997 50.5052 389.258 50.2969C389.518 50.0625 389.74 49.8411 389.922 49.6328C390.13 49.3984 390.312 49.151 390.469 48.8906C390.573 48.6823 390.703 48.2917 390.859 47.7188C391.016 47.1198 391.159 46.4427 391.289 45.6875C391.419 44.9062 391.51 44.0859 391.562 43.2266C391.641 42.3672 391.654 41.5469 391.602 40.7656C391.576 39.9583 391.458 39.2422 391.25 38.6172C391.068 37.9922 390.781 37.5365 390.391 37.25C389.219 36.3646 388.151 35.9349 387.188 35.9609C386.25 35.9609 385.352 36.3385 384.492 37.0938C384.18 37.3802 383.88 37.6667 383.594 37.9531C383.333 38.2135 383.047 38.526 382.734 38.8906C382.422 39.2292 382.135 39.5807 381.875 39.9453C381.875 40.3359 381.888 40.7656 381.914 41.2344C381.94 41.7031 381.966 42.1589 381.992 42.6016C382.018 43.0964 382.057 43.5911 382.109 44.0859C382.161 44.8411 382.24 45.5833 382.344 46.3125C382.422 46.9375 382.526 47.6276 382.656 48.3828C382.786 49.112 382.956 49.776 383.164 50.375C382.826 50.3229 382.474 50.3099 382.109 50.3359C381.745 50.3359 381.393 50.3359 381.055 50.3359C380.664 50.362 380.286 50.375 379.922 50.375C379.583 50.401 379.232 50.4401 378.867 50.4922C378.555 50.5443 378.216 50.5964 377.852 50.6484C377.487 50.6745 377.135 50.7266 376.797 50.8047C377.109 50.2057 377.37 49.6198 377.578 49.0469C377.786 48.4479 377.956 47.9271 378.086 47.4844C378.242 46.9635 378.372 46.4557 378.477 45.9609C378.555 45.5703 378.607 44.8281 378.633 43.7344C378.685 42.6146 378.724 41.3385 378.75 39.9062C378.776 38.4479 378.789 36.9115 378.789 35.2969C378.789 33.6823 378.776 32.1458 378.75 30.6875C378.724 29.2292 378.672 27.9531 378.594 26.8594C378.542 25.7656 378.477 25.0104 378.398 24.5938C378.294 24.1771 378.151 23.7604 377.969 23.3438C377.812 22.9792 377.604 22.6276 377.344 22.2891C377.083 21.9245 376.758 21.625 376.367 21.3906ZM409.297 33.5C409.974 33.5 410.677 33.6302 411.406 33.8906C412.135 34.125 412.839 34.4375 413.516 34.8281C414.193 35.1927 414.805 35.5964 415.352 36.0391C415.924 36.4557 416.393 36.8594 416.758 37.25C417.409 37.9531 417.852 38.9036 418.086 40.1016C418.346 41.2734 418.398 42.4844 418.242 43.7344C418.086 44.9583 417.721 46.1172 417.148 47.2109C416.576 48.3047 415.781 49.112 414.766 49.6328C414.036 49.9974 413.32 50.2839 412.617 50.4922C411.914 50.7005 411.237 50.8568 410.586 50.9609C409.935 51.0651 409.323 51.1172 408.75 51.1172C408.177 51.1172 407.682 51.1042 407.266 51.0781C406.484 51.026 405.664 50.7526 404.805 50.2578C403.971 49.763 403.177 49.151 402.422 48.4219C401.693 47.6927 401.068 46.8984 400.547 46.0391C400.026 45.1536 399.714 44.3203 399.609 43.5391C399.453 42.4714 399.427 41.3516 399.531 40.1797C399.635 39.0078 400.013 37.9271 400.664 36.9375C401.341 35.9479 402.357 35.1276 403.711 34.4766C405.091 33.8255 406.953 33.5 409.297 33.5ZM408.008 48.6562C408.294 48.7083 408.685 48.6432 409.18 48.4609C409.674 48.2526 410.156 47.9271 410.625 47.4844C411.12 47.0417 411.549 46.4818 411.914 45.8047C412.305 45.1016 412.539 44.2552 412.617 43.2656C412.695 42.3021 412.695 41.4167 412.617 40.6094C412.565 39.8021 412.448 39.099 412.266 38.5C412.083 37.875 411.875 37.3672 411.641 36.9766C411.406 36.5859 411.159 36.3125 410.898 36.1562C410.456 35.9219 409.922 35.7396 409.297 35.6094C408.672 35.4531 408.138 35.4792 407.695 35.6875C407.487 35.7917 407.227 36.013 406.914 36.3516C406.602 36.6901 406.289 37.1198 405.977 37.6406C405.664 38.1354 405.378 38.7083 405.117 39.3594C404.883 40.0104 404.714 40.6875 404.609 41.3906C404.505 42.0938 404.479 42.849 404.531 43.6562C404.609 44.4635 404.779 45.2318 405.039 45.9609C405.299 46.6641 405.664 47.276 406.133 47.7969C406.628 48.2917 407.253 48.5781 408.008 48.6562ZM430.586 33.5C431.263 33.5 431.966 33.6302 432.695 33.8906C433.424 34.125 434.128 34.4375 434.805 34.8281C435.482 35.1927 436.094 35.5964 436.641 36.0391C437.214 36.4557 437.682 36.8594 438.047 37.25C438.698 37.9531 439.141 38.9036 439.375 40.1016C439.635 41.2734 439.688 42.4844 439.531 43.7344C439.375 44.9583 439.01 46.1172 438.438 47.2109C437.865 48.3047 437.07 49.112 436.055 49.6328C435.326 49.9974 434.609 50.2839 433.906 50.4922C433.203 50.7005 432.526 50.8568 431.875 50.9609C431.224 51.0651 430.612 51.1172 430.039 51.1172C429.466 51.1172 428.971 51.1042 428.555 51.0781C427.773 51.026 426.953 50.7526 426.094 50.2578C425.26 49.763 424.466 49.151 423.711 48.4219C422.982 47.6927 422.357 46.8984 421.836 46.0391C421.315 45.1536 421.003 44.3203 420.898 43.5391C420.742 42.4714 420.716 41.3516 420.82 40.1797C420.924 39.0078 421.302 37.9271 421.953 36.9375C422.63 35.9479 423.646 35.1276 425 34.4766C426.38 33.8255 428.242 33.5 430.586 33.5ZM429.297 48.6562C429.583 48.7083 429.974 48.6432 430.469 48.4609C430.964 48.2526 431.445 47.9271 431.914 47.4844C432.409 47.0417 432.839 46.4818 433.203 45.8047C433.594 45.1016 433.828 44.2552 433.906 43.2656C433.984 42.3021 433.984 41.4167 433.906 40.6094C433.854 39.8021 433.737 39.099 433.555 38.5C433.372 37.875 433.164 37.3672 432.93 36.9766C432.695 36.5859 432.448 36.3125 432.188 36.1562C431.745 35.9219 431.211 35.7396 430.586 35.6094C429.961 35.4531 429.427 35.4792 428.984 35.6875C428.776 35.7917 428.516 36.013 428.203 36.3516C427.891 36.6901 427.578 37.1198 427.266 37.6406C426.953 38.1354 426.667 38.7083 426.406 39.3594C426.172 40.0104 426.003 40.6875 425.898 41.3906C425.794 42.0938 425.768 42.849 425.82 43.6562C425.898 44.4635 426.068 45.2318 426.328 45.9609C426.589 46.6641 426.953 47.276 427.422 47.7969C427.917 48.2917 428.542 48.5781 429.297 48.6562Z" fill="#1F1F1F"/>
<path d="M49.5547 115.559C49.3451 116.038 49.1579 116.457 48.9932 116.816C48.8285 117.176 48.6862 117.483 48.5664 117.737C48.4316 118.022 48.3193 118.276 48.2295 118.501C48.1546 118.666 48.0573 118.89 47.9375 119.175C47.8177 119.429 47.668 119.766 47.4883 120.186C47.3236 120.59 47.1064 121.114 46.8369 121.758C46.7021 121.204 46.5374 120.717 46.3428 120.298C46.1481 119.879 45.9385 119.512 45.7139 119.197C45.4893 118.883 45.2497 118.628 44.9951 118.434C44.7555 118.224 44.516 118.052 44.2764 117.917C43.7223 117.618 43.1383 117.453 42.5244 117.423C41.7158 117.468 41.0794 117.603 40.6152 117.827C40.166 118.037 39.8366 118.284 39.627 118.568C39.4173 118.838 39.305 119.122 39.29 119.422C39.2751 119.706 39.3125 119.946 39.4023 120.141C39.4772 120.32 39.7393 120.53 40.1885 120.77C40.6527 121.009 41.2067 121.286 41.8506 121.601C42.5094 121.9 43.2132 122.244 43.9619 122.634C44.7106 123.008 45.3994 123.427 46.0283 123.892C46.6722 124.341 47.2113 124.835 47.6455 125.374C48.0947 125.898 48.3418 126.46 48.3867 127.059C48.4316 127.822 48.4242 128.511 48.3643 129.125C48.3044 129.739 48.0947 130.263 47.7354 130.697C47.376 131.132 46.8145 131.476 46.0508 131.73C45.3021 131.985 44.2614 132.142 42.9287 132.202C41.5511 132.262 40.4206 132.187 39.5371 131.978C38.6536 131.768 37.9349 131.483 37.3809 131.124C36.8418 130.765 36.4375 130.368 36.168 129.934C35.9134 129.499 35.7262 129.088 35.6064 128.698C35.4867 128.294 35.4043 127.95 35.3594 127.665C35.3145 127.366 35.2396 127.186 35.1348 127.126C35.015 127.051 34.8952 126.984 34.7754 126.924C34.6706 126.864 34.5583 126.812 34.4385 126.767C34.3187 126.707 34.1989 126.654 34.0791 126.609L40.6152 125.554C40.2409 125.853 39.9489 126.13 39.7393 126.385C39.5446 126.639 39.3949 126.864 39.29 127.059C39.1702 127.283 39.0879 127.493 39.043 127.688C39.013 127.897 39.0804 128.159 39.2451 128.474C39.4098 128.788 39.6344 129.095 39.9189 129.395C40.2184 129.679 40.5628 129.919 40.9521 130.113C41.3415 130.308 41.7458 130.39 42.165 130.36C42.6891 130.315 43.1159 130.188 43.4453 129.979C43.7747 129.754 44.0218 129.477 44.1865 129.147C44.3662 128.818 44.471 128.459 44.501 128.069C44.5309 127.68 44.4935 127.298 44.3887 126.924C44.2988 126.535 44.1491 126.175 43.9395 125.846C43.7298 125.501 43.4827 125.217 43.1982 124.992C42.9437 124.812 42.5469 124.64 42.0078 124.476C41.4837 124.311 40.8923 124.131 40.2334 123.937C39.5895 123.742 38.9232 123.517 38.2344 123.263C37.5605 123.008 36.9466 122.694 36.3926 122.319C35.8535 121.945 35.4193 121.503 35.0898 120.994C34.7754 120.485 34.6556 119.871 34.7305 119.152C34.7904 118.538 34.985 118.029 35.3145 117.625C35.6589 117.206 36.0856 116.876 36.5947 116.637C37.1188 116.382 37.6953 116.195 38.3242 116.075C38.9681 115.955 39.6195 115.888 40.2783 115.873C40.9521 115.843 41.611 115.851 42.2549 115.896C42.9137 115.94 43.5052 115.993 44.0293 116.053C44.5534 116.113 44.9951 116.173 45.3545 116.232C45.7288 116.277 45.9609 116.307 46.0508 116.322C46.4401 116.352 46.8294 116.345 47.2188 116.3C47.5632 116.27 47.9375 116.202 48.3418 116.098C48.7611 115.978 49.1654 115.798 49.5547 115.559ZM62.1104 124.026C61.9307 123.996 61.7061 123.974 61.4365 123.959C61.182 123.944 60.9349 123.937 60.6953 123.937C60.4258 123.937 60.1413 123.944 59.8418 123.959C59.5273 123.974 59.2129 123.989 58.8984 124.004C58.6289 124.019 58.3219 124.041 57.9775 124.071C57.6481 124.086 57.3262 124.109 57.0117 124.139C57.1315 124.079 57.2363 123.996 57.3262 123.892C57.431 123.787 57.5208 123.682 57.5957 123.577C57.6706 123.457 57.738 123.33 57.7979 123.195C57.8727 122.971 57.8652 122.701 57.7754 122.387C57.6855 122.057 57.5208 121.758 57.2812 121.488C57.0566 121.219 56.7646 121.009 56.4053 120.859C56.0609 120.695 55.679 120.657 55.2598 120.747C54.8105 120.852 54.4062 121.009 54.0469 121.219C53.7025 121.428 53.4105 121.72 53.1709 122.095C52.9463 122.454 52.7816 122.903 52.6768 123.442C52.5869 123.966 52.5645 124.595 52.6094 125.329C52.6693 126.243 52.819 126.969 53.0586 127.508C53.2982 128.047 53.5902 128.451 53.9346 128.721C54.279 128.99 54.6533 129.155 55.0576 129.215C55.4769 129.26 55.8887 129.26 56.293 129.215C56.5775 129.155 56.8395 129.028 57.0791 128.833C57.2738 128.668 57.4535 128.429 57.6182 128.114C57.7829 127.8 57.8577 127.366 57.8428 126.812L60.583 126.699C60.2686 127.583 59.8867 128.286 59.4375 128.811C58.9883 129.32 58.554 129.716 58.1348 130.001C57.6406 130.33 57.1465 130.555 56.6523 130.675C56.0384 130.78 55.4919 130.825 55.0127 130.81C54.5335 130.78 54.0993 130.705 53.71 130.585C53.3206 130.465 52.9613 130.315 52.6318 130.136C52.3024 129.956 51.988 129.761 51.6885 129.552C51.4938 129.417 51.2767 129.192 51.0371 128.878C50.7975 128.563 50.5729 128.189 50.3633 127.755C50.1536 127.306 49.9814 126.812 49.8467 126.272C49.7119 125.733 49.6595 125.179 49.6895 124.61C49.7194 124.026 49.8542 123.442 50.0938 122.858C50.3333 122.274 50.7152 121.713 51.2393 121.174C52.0329 120.365 52.8789 119.841 53.7773 119.602C54.6908 119.347 55.5518 119.28 56.3604 119.399C57.1689 119.504 57.8877 119.736 58.5166 120.096C59.1455 120.455 59.5872 120.844 59.8418 121.264C60.0964 121.683 60.2835 122.005 60.4033 122.229C60.5381 122.439 60.6354 122.604 60.6953 122.724C60.7702 122.828 60.8301 122.911 60.875 122.971C60.9349 123.016 61.0173 123.083 61.1221 123.173C61.1969 123.248 61.2868 123.33 61.3916 123.42C61.4814 123.495 61.5863 123.585 61.7061 123.689C61.8258 123.794 61.9606 123.907 62.1104 124.026ZM61.6611 114.975C62.0055 115.035 62.32 115.079 62.6045 115.109C62.889 115.124 63.1286 115.139 63.3232 115.154C63.5479 115.169 63.7425 115.177 63.9072 115.177C64.1318 115.162 64.3939 115.139 64.6934 115.109C64.9479 115.079 65.2549 115.042 65.6143 114.997C65.9886 114.952 66.4154 114.892 66.8945 114.817C66.6699 114.937 66.4827 115.057 66.333 115.177C66.1833 115.282 66.0635 115.394 65.9736 115.514C65.8688 115.648 65.7865 115.776 65.7266 115.896C65.6517 116.09 65.5693 116.494 65.4795 117.108C65.3896 117.632 65.2773 118.411 65.1426 119.444C65.0228 120.478 64.8656 121.878 64.6709 123.645C65.21 123.105 65.7191 122.701 66.1982 122.432C66.6924 122.147 67.1266 121.945 67.501 121.825C67.9352 121.69 68.3395 121.623 68.7139 121.623C69.1781 121.668 69.6497 121.818 70.1289 122.072C70.623 122.312 71.0798 122.596 71.499 122.926C71.9333 123.255 72.3076 123.607 72.6221 123.981C72.9515 124.356 73.1836 124.685 73.3184 124.97C73.4082 125.164 73.4531 125.419 73.4531 125.733C73.4531 126.033 73.4232 126.362 73.3633 126.722C73.3034 127.081 73.221 127.448 73.1162 127.822C73.0114 128.197 72.9066 128.549 72.8018 128.878C72.7119 129.207 72.6296 129.499 72.5547 129.754C72.4798 129.993 72.4349 130.166 72.4199 130.271C72.39 130.495 72.4049 130.712 72.4648 130.922C72.5098 131.102 72.5996 131.296 72.7344 131.506C72.8691 131.701 73.0713 131.865 73.3408 132C73.1312 131.97 72.9066 131.948 72.667 131.933C72.4424 131.903 72.2253 131.88 72.0156 131.865C71.776 131.85 71.5365 131.843 71.2969 131.843H70.4883C70.2337 131.843 69.9417 131.85 69.6123 131.865C69.2829 131.865 68.9235 131.873 68.5342 131.888C68.7438 131.813 68.9235 131.715 69.0732 131.596C69.223 131.461 69.3503 131.334 69.4551 131.214C69.5749 131.079 69.6797 130.937 69.7695 130.787C69.8294 130.667 69.9043 130.443 69.9941 130.113C70.084 129.769 70.1663 129.38 70.2412 128.945C70.3161 128.496 70.3685 128.024 70.3984 127.53C70.4434 127.036 70.4508 126.564 70.4209 126.115C70.4059 125.651 70.3385 125.239 70.2188 124.88C70.1139 124.521 69.9492 124.258 69.7246 124.094C69.0508 123.585 68.4368 123.338 67.8828 123.353C67.3438 123.353 66.8271 123.57 66.333 124.004C66.1533 124.169 65.9811 124.333 65.8164 124.498C65.6667 124.648 65.502 124.827 65.3223 125.037C65.1426 125.232 64.9779 125.434 64.8281 125.644C64.8281 125.868 64.8356 126.115 64.8506 126.385C64.8656 126.654 64.8805 126.916 64.8955 127.171C64.9105 127.455 64.9329 127.74 64.9629 128.024C64.9928 128.459 65.0378 128.885 65.0977 129.305C65.1426 129.664 65.2025 130.061 65.2773 130.495C65.3522 130.914 65.4495 131.296 65.5693 131.641C65.3747 131.611 65.1725 131.603 64.9629 131.618C64.7533 131.618 64.5511 131.618 64.3564 131.618C64.1318 131.633 63.9147 131.641 63.7051 131.641C63.5104 131.656 63.3083 131.678 63.0986 131.708C62.9189 131.738 62.7243 131.768 62.5146 131.798C62.305 131.813 62.1029 131.843 61.9082 131.888C62.0879 131.543 62.2376 131.206 62.3574 130.877C62.4772 130.533 62.5745 130.233 62.6494 129.979C62.7393 129.679 62.8141 129.387 62.874 129.103C62.9189 128.878 62.9489 128.451 62.9639 127.822C62.9938 127.178 63.0163 126.445 63.0312 125.621C63.0462 124.783 63.0537 123.899 63.0537 122.971C63.0537 122.042 63.0462 121.159 63.0312 120.32C63.0163 119.482 62.9863 118.748 62.9414 118.119C62.9115 117.49 62.874 117.056 62.8291 116.816C62.7692 116.577 62.6868 116.337 62.582 116.098C62.4922 115.888 62.3724 115.686 62.2227 115.491C62.0729 115.282 61.8857 115.109 61.6611 114.975ZM80.5957 121.938C80.985 121.938 81.3893 122.012 81.8086 122.162C82.2279 122.297 82.6322 122.477 83.0215 122.701C83.4108 122.911 83.7627 123.143 84.0771 123.397C84.4066 123.637 84.6761 123.869 84.8857 124.094C85.2601 124.498 85.5146 125.045 85.6494 125.733C85.7992 126.407 85.8291 127.104 85.7393 127.822C85.6494 128.526 85.4398 129.192 85.1104 129.821C84.7809 130.45 84.3242 130.914 83.7402 131.214C83.321 131.424 82.9092 131.588 82.5049 131.708C82.1006 131.828 81.7113 131.918 81.3369 131.978C80.9626 132.037 80.6107 132.067 80.2812 132.067C79.9518 132.067 79.6673 132.06 79.4277 132.045C78.9785 132.015 78.5068 131.858 78.0127 131.573C77.5335 131.289 77.0768 130.937 76.6426 130.518C76.2233 130.098 75.8639 129.642 75.5645 129.147C75.265 128.638 75.0853 128.159 75.0254 127.71C74.9355 127.096 74.9206 126.452 74.9805 125.778C75.0404 125.104 75.2575 124.483 75.6318 123.914C76.0212 123.345 76.6051 122.873 77.3838 122.499C78.1774 122.125 79.248 121.938 80.5957 121.938ZM79.8545 130.652C80.0192 130.682 80.2438 130.645 80.5283 130.54C80.8128 130.42 81.0898 130.233 81.3594 129.979C81.6439 129.724 81.891 129.402 82.1006 129.013C82.3252 128.608 82.46 128.122 82.5049 127.553C82.5498 126.999 82.5498 126.49 82.5049 126.025C82.4749 125.561 82.4076 125.157 82.3027 124.812C82.1979 124.453 82.0781 124.161 81.9434 123.937C81.8086 123.712 81.6663 123.555 81.5166 123.465C81.262 123.33 80.9551 123.225 80.5957 123.15C80.2363 123.061 79.9294 123.076 79.6748 123.195C79.555 123.255 79.4053 123.382 79.2256 123.577C79.0459 123.772 78.8662 124.019 78.6865 124.318C78.5068 124.603 78.3421 124.932 78.1924 125.307C78.0576 125.681 77.9603 126.07 77.9004 126.475C77.8405 126.879 77.8255 127.313 77.8555 127.777C77.9004 128.242 77.9977 128.683 78.1475 129.103C78.2972 129.507 78.5068 129.859 78.7764 130.158C79.0609 130.443 79.4202 130.607 79.8545 130.652ZM92.8369 121.938C93.2262 121.938 93.6305 122.012 94.0498 122.162C94.4691 122.297 94.8734 122.477 95.2627 122.701C95.652 122.911 96.0039 123.143 96.3184 123.397C96.6478 123.637 96.9173 123.869 97.127 124.094C97.5013 124.498 97.7559 125.045 97.8906 125.733C98.0404 126.407 98.0703 127.104 97.9805 127.822C97.8906 128.526 97.681 129.192 97.3516 129.821C97.0221 130.45 96.5654 130.914 95.9814 131.214C95.5622 131.424 95.1504 131.588 94.7461 131.708C94.3418 131.828 93.9525 131.918 93.5781 131.978C93.2038 132.037 92.8519 132.067 92.5225 132.067C92.193 132.067 91.9085 132.06 91.6689 132.045C91.2197 132.015 90.748 131.858 90.2539 131.573C89.7747 131.289 89.318 130.937 88.8838 130.518C88.4645 130.098 88.1051 129.642 87.8057 129.147C87.5062 128.638 87.3265 128.159 87.2666 127.71C87.1768 127.096 87.1618 126.452 87.2217 125.778C87.2816 125.104 87.4987 124.483 87.873 123.914C88.2624 123.345 88.8464 122.873 89.625 122.499C90.4186 122.125 91.4893 121.938 92.8369 121.938ZM92.0957 130.652C92.2604 130.682 92.485 130.645 92.7695 130.54C93.054 130.42 93.3311 130.233 93.6006 129.979C93.8851 129.724 94.1322 129.402 94.3418 129.013C94.5664 128.608 94.7012 128.122 94.7461 127.553C94.791 126.999 94.791 126.49 94.7461 126.025C94.7161 125.561 94.6488 125.157 94.5439 124.812C94.4391 124.453 94.3193 124.161 94.1846 123.937C94.0498 123.712 93.9076 123.555 93.7578 123.465C93.5033 123.33 93.1963 123.225 92.8369 123.15C92.4775 123.061 92.1706 123.076 91.916 123.195C91.7962 123.255 91.6465 123.382 91.4668 123.577C91.2871 123.772 91.1074 124.019 90.9277 124.318C90.748 124.603 90.5833 124.932 90.4336 125.307C90.2988 125.681 90.2015 126.07 90.1416 126.475C90.0817 126.879 90.0667 127.313 90.0967 127.777C90.1416 128.242 90.2389 128.683 90.3887 129.103C90.5384 129.507 90.748 129.859 91.0176 130.158C91.3021 130.443 91.6615 130.607 92.0957 130.652ZM99.5752 132.629C99.7249 132.404 99.8447 132.195 99.9346 132C100.024 131.805 100.099 131.641 100.159 131.506C100.219 131.341 100.264 131.191 100.294 131.057C100.309 130.967 100.316 130.705 100.316 130.271C100.316 129.836 100.301 129.29 100.271 128.631C100.257 127.972 100.234 127.231 100.204 126.407C100.189 125.584 100.159 124.745 100.114 123.892C100.084 123.038 100.047 122.207 100.002 121.398C99.972 120.59 99.9421 119.864 99.9121 119.22C99.8822 118.561 99.8522 118.022 99.8223 117.603C99.7923 117.183 99.7699 116.944 99.7549 116.884C99.7249 116.794 99.6725 116.704 99.5977 116.614C99.4479 116.435 99.1934 116.262 98.834 116.098C99.5977 115.903 100.182 115.746 100.586 115.626C100.826 115.566 101.035 115.506 101.215 115.446C101.38 115.386 101.544 115.326 101.709 115.267C101.844 115.207 101.993 115.139 102.158 115.064C102.323 114.975 102.473 114.877 102.607 114.772C102.533 115.207 102.473 115.626 102.428 116.03C102.383 116.435 102.345 116.809 102.315 117.153C102.285 117.543 102.271 117.917 102.271 118.276C102.196 119.01 102.151 119.811 102.136 120.68C102.136 121.533 102.143 122.402 102.158 123.285C102.173 124.169 102.203 125.03 102.248 125.868C102.293 126.707 102.338 127.47 102.383 128.159C102.443 128.833 102.495 129.41 102.54 129.889C102.6 130.353 102.645 130.652 102.675 130.787C102.735 131.012 102.795 131.229 102.854 131.438C102.914 131.618 102.982 131.805 103.057 132C103.132 132.21 103.221 132.374 103.326 132.494H101.147C100.953 132.494 100.766 132.502 100.586 132.517C100.421 132.532 100.249 132.547 100.069 132.562C99.8896 132.576 99.7249 132.599 99.5752 132.629Z" fill="white"/>
</svg>
